<svg xmlns:svg="http://www.w3.org/2000/svg" xmlns="http://www.w3.org/2000/svg" xmlns:sodipodi="http://sodipodi.sourceforge.net/DTD/sodipodi-0.dtd" xmlns:inkscape="http://www.inkscape.org/namespaces/inkscape" width="16mm" height="16mm" viewBox="0 0 16 16" version="1.1">
    <style> path:first-of-type { fill: #FFF; } path:last-of-type { fill: #000; } @media (prefers-color-scheme: dark) { path:first-of-type { fill: #000; } path:last-of-type {fill: #FFF; } } </style>
    <path d="M 11,-4e-7 H 5 V 1 H 3 V 2 H 2 v 1 H 1 V 5 H 0 V 11 h 1 v 2 H 2 v 1 h 1 v 1 h 2 v 1 H 11 v -1 l 2,1e-4 L 13,14 h 1 V 13 h 1 v -2 h 1 V 5 h -1 V 3 h -1 v -1 H 13 V 1 h -2 z" />
    <path d="M 5,1 V 2 H 11 V 1 Z m 0,1 h -1 v 1 h 1 z M 13,1 V 2 H 14 V 1 Z m 0,1 H 12 V 3 h 1 z M 12,3 h -1 v 8 h 1 z m -1,8 H 10 v 1 h 1 z m -1,0 V 5 H 9 V 11 Z M 9,5 V 4 h -1 v 1 z m -1,0 h -1 v 7 h 1 z M 3,3 v 1 h 1 V 3 Z m 0,1 h -1 v 1 h 1 z M 2,5 H 1 V 11 H 2 Z m 0,6 v 1 h 1 v -1 z m 3,-7 v 8 h 1 V 4 Z m 0,8 h -1 v 1 h 1 z m -1,1 h -1 v 1 h 1 z m -1,1 h -1 v 1 h 1 z M 13,4 V 5 H 14 V 4 Z m 1,1 v 6 h 1 V 5 Z m 0,6 h -1 v 1 h 1 z m -1,1 h -1 v 1 h 1 z M 11,13 l 0,-0 0,1 h 1 L 12,13 Z m -6,1 v 1 h 6 v -1 z" />
</svg>