<svg width="1024" height="1024" viewBox="0 0 1024 1024" fill="none" xmlns="http://www.w3.org/2000/svg">
    <g filter="url(#filter0_dii)">
        <path d="M718.084 100H305.916C278.874 100 252.098 105.326 227.115 115.674C202.132 126.023 179.432 141.19 160.311 160.311C141.19 179.432 126.023 202.132 115.674 227.115C105.326 252.098 100 278.874 100 305.916V718.084C100 745.126 105.326 771.902 115.674 796.885C126.023 821.868 141.19 844.568 160.311 863.689C179.432 882.81 202.132 897.977 227.115 908.326C252.098 918.674 278.874 924 305.916 924H718.084C772.697 924 825.072 902.305 863.689 863.689C902.305 825.072 924 772.697 924 718.084V305.916C924 278.874 918.674 252.098 908.326 227.115C897.977 202.132 882.81 179.432 863.689 160.311C844.568 141.19 821.868 126.023 796.885 115.674C771.902 105.326 745.126 100 718.084 100Z" fill="url(#paint0_linear)" />
        <path d="M718.084 100H305.916C278.874 100 252.098 105.326 227.115 115.674C202.132 126.023 179.432 141.19 160.311 160.311C141.19 179.432 126.023 202.132 115.674 227.115C105.326 252.098 100 278.874 100 305.916V718.084C100 745.126 105.326 771.902 115.674 796.885C126.023 821.868 141.19 844.568 160.311 863.689C179.432 882.81 202.132 897.977 227.115 908.326C252.098 918.674 278.874 924 305.916 924H718.084C772.697 924 825.072 902.305 863.689 863.689C902.305 825.072 924 772.697 924 718.084V305.916C924 278.874 918.674 252.098 908.326 227.115C897.977 202.132 882.81 179.432 863.689 160.311C844.568 141.19 821.868 126.023 796.885 115.674C771.902 105.326 745.126 100 718.084 100Z" fill="url(#paint1_linear)" />
    </g>
    <g filter="url(#filter1_i)">
        <path d="M821 512C821 593.952 788.445 672.547 730.496 730.496C672.547 788.445 593.952 821 512 821C430.048 821 351.453 788.445 293.504 730.496C235.555 672.547 203 593.952 203 512C203 430.048 235.555 351.453 293.504 293.504C351.453 235.555 430.048 203 512 203C593.952 203 672.547 235.555 730.496 293.504C788.445 351.453 821 430.048 821 512Z" fill="white" />
    </g>
    <g filter="url(#filter2_ii)">
        <path d="M376 736C376 736 422.333 672.428 422.333 608.857V386.357M654 291C654 291 607.667 354.572 607.667 418.143V608.857C607.667 656.535 545.889 656.535 545.889 608.857V418.143C545.889 370.465 484.103 370.465 484.103 418.143V640.643" stroke="#F75E78" stroke-width="40" stroke-miterlimit="10" stroke-linecap="round" stroke-linejoin="round" />
        <path d="M376 736C376 736 422.333 672.428 422.333 608.857V386.357M654 291C654 291 607.667 354.572 607.667 418.143V608.857C607.667 656.535 545.889 656.535 545.889 608.857V418.143C545.889 370.465 484.103 370.465 484.103 418.143V640.643" stroke="url(#paint2_linear)" stroke-width="40" stroke-miterlimit="10" stroke-linecap="round" stroke-linejoin="round" />
    </g>
    <g filter="url(#filter3_f)">
        <path d="M376 736C376 736 422.333 672.428 422.333 608.857V386.357M654 291C654 291 607.667 354.572 607.667 418.143V608.857C607.667 656.535 545.889 656.535 545.889 608.857V418.143C545.889 370.465 484.103 370.465 484.103 418.143V640.643" stroke="white" stroke-opacity="0.1" stroke-width="15" stroke-miterlimit="10" stroke-linecap="round" stroke-linejoin="round" />
    </g>
    <defs>
        <filter id="filter0_dii" x="96" y="80" width="832" height="864" filterUnits="userSpaceOnUse" color-interpolation-filters="sRGB">
            <feFlood flood-opacity="0" result="BackgroundImageFix" />
            <feColorMatrix in="SourceAlpha" type="matrix" values="0 0 0 0 0 0 0 0 0 0 0 0 0 0 0 0 0 0 127 0" />
            <feOffset dy="4" />
            <feGaussianBlur stdDeviation="2" />
            <feColorMatrix type="matrix" values="0 0 0 0 0 0 0 0 0 0 0 0 0 0 0 0 0 0 0.25 0" />
            <feBlend mode="normal" in2="BackgroundImageFix" result="effect1_dropShadow" />
            <feBlend mode="normal" in="SourceGraphic" in2="effect1_dropShadow" result="shape" />
            <feColorMatrix in="SourceAlpha" type="matrix" values="0 0 0 0 0 0 0 0 0 0 0 0 0 0 0 0 0 0 127 0" result="hardAlpha" />
            <feOffset dy="20" />
            <feGaussianBlur stdDeviation="20" />
            <feComposite in2="hardAlpha" operator="arithmetic" k2="-1" k3="1" />
            <feColorMatrix type="matrix" values="0 0 0 0 1 0 0 0 0 1 0 0 0 0 1 0 0 0 0.2 0" />
            <feBlend mode="normal" in2="shape" result="effect2_innerShadow" />
            <feColorMatrix in="SourceAlpha" type="matrix" values="0 0 0 0 0 0 0 0 0 0 0 0 0 0 0 0 0 0 127 0" result="hardAlpha" />
            <feOffset dy="-20" />
            <feGaussianBlur stdDeviation="20" />
            <feComposite in2="hardAlpha" operator="arithmetic" k2="-1" k3="1" />
            <feColorMatrix type="matrix" values="0 0 0 0 0 0 0 0 0 0 0 0 0 0 0 0 0 0 0.2 0" />
            <feBlend mode="normal" in2="effect2_innerShadow" result="effect3_innerShadow" />
        </filter>
        <filter id="filter1_i" x="203" y="203" width="618" height="618" filterUnits="userSpaceOnUse" color-interpolation-filters="sRGB">
            <feFlood flood-opacity="0" result="BackgroundImageFix" />
            <feBlend mode="normal" in="SourceGraphic" in2="BackgroundImageFix" result="shape" />
            <feColorMatrix in="SourceAlpha" type="matrix" values="0 0 0 0 0 0 0 0 0 0 0 0 0 0 0 0 0 0 127 0" result="hardAlpha" />
            <feOffset />
            <feGaussianBlur stdDeviation="5" />
            <feComposite in2="hardAlpha" operator="arithmetic" k2="-1" k3="1" />
            <feColorMatrix type="matrix" values="0 0 0 0 0 0 0 0 0 0 0 0 0 0 0 0 0 0 1 0" />
            <feBlend mode="normal" in2="shape" result="effect1_innerShadow" />
        </filter>
        <filter id="filter2_ii" x="355.999" y="262.999" width="318.003" height="497.003" filterUnits="userSpaceOnUse" color-interpolation-filters="sRGB">
            <feFlood flood-opacity="0" result="BackgroundImageFix" />
            <feBlend mode="normal" in="SourceGraphic" in2="BackgroundImageFix" result="shape" />
            <feColorMatrix in="SourceAlpha" type="matrix" values="0 0 0 0 0 0 0 0 0 0 0 0 0 0 0 0 0 0 127 0" result="hardAlpha" />
            <feOffset dy="-8" />
            <feGaussianBlur stdDeviation="5" />
            <feComposite in2="hardAlpha" operator="arithmetic" k2="-1" k3="1" />
            <feColorMatrix type="matrix" values="0 0 0 0 0 0 0 0 0 0 0 0 0 0 0 0 0 0 0.25 0" />
            <feBlend mode="normal" in2="shape" result="effect1_innerShadow" />
            <feColorMatrix in="SourceAlpha" type="matrix" values="0 0 0 0 0 0 0 0 0 0 0 0 0 0 0 0 0 0 127 0" result="hardAlpha" />
            <feOffset dy="4" />
            <feGaussianBlur stdDeviation="5" />
            <feComposite in2="hardAlpha" operator="arithmetic" k2="-1" k3="1" />
            <feColorMatrix type="matrix" values="0 0 0 0 0 0 0 0 0 0 0 0 0 0 0 0 0 0 0.25 0" />
            <feBlend mode="normal" in2="effect1_innerShadow" result="effect2_innerShadow" />
        </filter>
        <filter id="filter3_f" x="358.499" y="273.499" width="313.001" height="480.001" filterUnits="userSpaceOnUse" color-interpolation-filters="sRGB">
            <feFlood flood-opacity="0" result="BackgroundImageFix" />
            <feBlend mode="normal" in="SourceGraphic" in2="BackgroundImageFix" result="shape" />
            <feGaussianBlur stdDeviation="5" result="effect1_foregroundBlur" />
        </filter>
        <linearGradient id="paint0_linear" x1="17.6" y1="512" x2="1006.4" y2="512" gradientUnits="userSpaceOnUse">
            <stop stop-color="#F75E78" />
            <stop offset="1" stop-color="#DA2544" />
        </linearGradient>
        <linearGradient id="paint1_linear" x1="924" y1="100" x2="100" y2="924" gradientUnits="userSpaceOnUse">
            <stop stop-color="white" stop-opacity="0" />
            <stop offset="1" stop-color="#DA257C" stop-opacity="0.8" />
        </linearGradient>
        <linearGradient id="paint2_linear" x1="926.262" y1="102.212" x2="103.188" y2="924.136" gradientUnits="userSpaceOnUse">
            <stop stop-color="white" stop-opacity="0" />
            <stop offset="1" stop-color="#DA257C" stop-opacity="0.8" />
        </linearGradient>
    </defs>
</svg>
